<?xml version="1.0" encoding="UTF-8" standalone="no"?>
<!DOCTYPE svg PUBLIC "-//W3C//DTD SVG 1.1//EN" "http://www.w3.org/Graphics/SVG/1.1/DTD/svg11.dtd">
<svg width="100%" height="100%" viewBox="0 0 90 88" version="1.1" xmlns="http://www.w3.org/2000/svg" xmlns:xlink="http://www.w3.org/1999/xlink" xml:space="preserve" xmlns:serif="http://www.serif.com/" style="fill-rule:evenodd;clip-rule:evenodd;stroke-linejoin:round;stroke-miterlimit:2;">
    <g transform="matrix(1,0,0,1,74.6094,53.5902)">
        <g id="All-glyphs" serif:id="All glyphs">
            <path d="M0,-19.18L0,-34.18L-9.5,-34.18L-9.5,-19.18L-24.5,-19.18L-24.5,-9.68L-9.5,-9.68L-9.5,5.32L0,5.32L0,-9.68L15,-9.68L15,-19.18L0,-19.18ZM-38.742,-36.459C-36.486,-28.526 -39.893,-20.23 -45.32,-18.701C-45.943,-18.526 -46.59,-18.436 -47.242,-18.436C-52.215,-18.436 -57.143,-23.467 -58.967,-30.396C-59.986,-34.289 -59.904,-37.692 -58.734,-40.964C-57.584,-44.183 -55.52,-46.357 -52.92,-47.088C-52.295,-47.265 -51.646,-47.355 -50.996,-47.355C-44.992,-47.355 -41.133,-44.866 -38.742,-36.459M-32.738,13.417C-32.299,20.45 -38.314,25.638 -47.346,26.296C-56.52,26.966 -64.072,22.836 -64.512,15.812C-64.725,12.438 -63.24,9.129 -60.336,6.496C-57.389,3.827 -53.344,2.181 -48.943,1.857C-48.424,1.824 -47.908,1.803 -47.395,1.803C-38.904,1.803 -33.154,6.794 -32.738,13.417M-69.855,-31.647C-69.855,-24.179 -67.361,-18.787 -62.443,-15.619C-58.418,-13.026 -53.742,-12.638 -51.314,-12.638C-50.725,-12.638 -50.252,-12.66 -49.922,-12.682C-49.922,-12.682 -50.693,-7.666 -46.973,-2.701L-47.141,-2.702C-53.586,-2.702 -74.609,-1.356 -74.609,15.926C-74.609,33.511 -55.301,34.404 -51.428,34.404C-51.125,34.404 -50.947,34.398 -50.947,34.398C-50.904,34.399 -50.627,34.41 -50.156,34.41C-47.67,34.41 -41.244,34.097 -35.277,31.197C-27.537,27.439 -23.609,20.904 -23.609,11.772C-23.609,2.947 -29.592,-2.305 -33.959,-6.144C-36.625,-8.482 -38.928,-10.502 -38.928,-12.466C-38.928,-14.467 -37.246,-15.971 -35.119,-17.876C-31.674,-20.957 -28.428,-25.342 -28.428,-33.631C-28.428,-40.918 -29.373,-45.809 -35.193,-48.912C-34.586,-49.223 -32.441,-49.45 -31.379,-49.596C-28.225,-50.027 -23.609,-50.516 -23.609,-53.092L-23.609,-53.59L-46.604,-53.59C-46.834,-53.584 -69.855,-52.731 -69.855,-31.647" style="fill:rgb(122,129,154);fill-rule:nonzero;"/>
        </g>
    </g>
</svg>
