<?xml version="1.0" encoding="UTF-8" standalone="no"?>
<!DOCTYPE svg PUBLIC "-//W3C//DTD SVG 1.1//EN" "http://www.w3.org/Graphics/SVG/1.1/DTD/svg11.dtd">
<svg width="100%" height="100%" viewBox="0 0 92 75" version="1.1" xmlns="http://www.w3.org/2000/svg" xmlns:xlink="http://www.w3.org/1999/xlink" xml:space="preserve" xmlns:serif="http://www.serif.com/" style="fill-rule:evenodd;clip-rule:evenodd;stroke-linejoin:round;stroke-miterlimit:2;">
    <g transform="matrix(1,0,0,1,92,65.9176)">
        <g id="All-glyphs" serif:id="All glyphs">
            <path d="M0,-57.068C-3.387,-55.566 -7.023,-54.552 -10.842,-54.095C-6.943,-56.431 -3.951,-60.131 -2.541,-64.538C-6.189,-62.376 -10.229,-60.804 -14.527,-59.958C-17.971,-63.627 -22.877,-65.918 -28.305,-65.918C-38.729,-65.918 -47.18,-57.467 -47.18,-47.044C-47.18,-45.564 -47.014,-44.124 -46.691,-42.743C-62.377,-43.529 -76.289,-51.044 -85.596,-62.464C-87.221,-59.675 -88.152,-56.433 -88.152,-52.974C-88.152,-46.426 -84.82,-40.65 -79.756,-37.264C-82.848,-37.362 -85.76,-38.21 -88.305,-39.624C-88.307,-39.546 -88.307,-39.467 -88.307,-39.387C-88.307,-30.242 -81.799,-22.613 -73.166,-20.88C-74.748,-20.448 -76.416,-20.216 -78.139,-20.216C-79.354,-20.216 -80.535,-20.335 -81.689,-20.555C-79.287,-13.057 -72.314,-7.599 -64.057,-7.448C-70.518,-2.384 -78.654,0.633 -87.498,0.633C-89.021,0.633 -90.523,0.543 -92,0.367C-83.648,5.724 -73.729,8.85 -63.066,8.85C-28.35,8.85 -9.363,-19.913 -9.363,-44.856C-9.363,-45.672 -9.381,-46.487 -9.418,-47.298C-5.73,-49.958 -2.531,-53.282 0,-57.068" style="fill:rgb(122,129,154);fill-rule:nonzero;"/>
        </g>
    </g>
</svg>
