<svg version="1.1" xmlns="http://www.w3.org/2000/svg" xmlns:xlink="http://www.w3.org/1999/xlink" width="19" height="19"><defs/><g><path fill="rgb(186,186,186)" stroke="none" paint-order="stroke fill markers" fill-rule="evenodd" d=" M 4.8793816566467285 1.4950017929077148 C 4.8793816566467285 1.4950017929077148 13.699407577514648 1.4950017929077148 13.699407577514648 1.4950017929077148 C 15.754702091217041 1.4950017929077148 17.420775890350342 3.1568830013275146 17.420775890350342 5.20674067735672 C 17.420775890350342 5.20674067735672 17.420775890350342 14.004482805728912 17.420775890350342 14.004482805728912 C 17.420775890350342 16.054554164409637 15.754702091217041 17.716435372829437 13.699407577514648 17.716435372829437 C 13.699407577514648 17.716435372829437 4.8793816566467285 17.716435372829437 4.8793816566467285 17.716435372829437 C 2.824147939682007 17.716435372829437 1.1580133438110352 16.054554164409637 1.1580133438110352 14.004482805728912 C 1.1580133438110352 14.004482805728912 1.1580133438110352 5.20674067735672 1.1580133438110352 5.20674067735672 C 1.1580133438110352 3.1568830013275146 2.824147939682007 1.4950017929077148 4.8793816566467285 1.4950017929077148 Z M 5.80251932144165 3.2142924070358276 C 5.80251932144165 3.2142924070358276 12.745020389556885 3.2142924070358276 12.745020389556885 3.2142924070358276 C 14.362760782241821 3.2142924070358276 15.674268007278442 4.522528827190399 15.674268007278442 6.136046528816223 C 15.674268007278442 6.136046528816223 15.674268007278442 13.06093144416809 15.674268007278442 13.06093144416809 C 15.674268007278442 14.674662828445435 14.362760782241821 15.98261433839798 12.745020389556885 15.98261433839798 C 12.745020389556885 15.98261433839798 5.80251932144165 15.98261433839798 5.80251932144165 15.98261433839798 C 4.184718132019043 15.98261433839798 2.8732717037200928 14.674662828445435 2.8732717037200928 13.06093144416809 C 2.8732717037200928 13.06093144416809 2.8732717037200928 6.136046528816223 2.8732717037200928 6.136046528816223 C 2.8732717037200928 4.522528827190399 4.184718132019043 3.2142924070358276 5.80251932144165 3.2142924070358276 Z"/></g></svg>