<svg version="1.1" xmlns="http://www.w3.org/2000/svg" xmlns:xlink="http://www.w3.org/1999/xlink" width="26" height="35"><defs/><g><path fill="rgb(102,109,137)" stroke="none" paint-order="stroke fill markers" fill-rule="evenodd" d=" M 13.000007152557373 1.0000367760658264 C 6.924832344055176 1.0000367760658264 1.9999926090240479 5.924923300743103 1.9999926090240479 12.00006353855133 C 1.9999926090240479 16.0312579870224 5.688530683517456 20.30277419090271 7.03134822845459 24.054899096488953 C 9.034235954284668 29.651390194892883 8.812510251998901 33.00001102685928 13.000007152557373 33.00001102685928 C 17.2500638961792 33.00001102685928 16.964805603027344 29.666134297847748 18.96884846687317 24.078261733055115 C 20.316408157348633 20.318515479564667 24.0000216960907 16.00013154745102 24.0000216960907 12.00006353855133 C 24.0000216960907 5.924923300743103 19.07524275779724 1.0000367760658264 13.000007152557373 1.0000367760658264 Z M 15.592805624008179 28.175840258598328 C 15.592805624008179 28.175840258598328 10.633858919143677 28.795947313308716 10.633858919143677 28.795947313308716 C 10.457001209259033 28.283322632312775 10.26664662361145 27.68358665704727 10.036105394363403 26.902576565742493 C 10.033247947692871 26.892675936222076 10.029356956481934 26.88092339038849 10.027350664138794 26.871236443519592 C 10.027350664138794 26.871236443519592 16.215850591659546 26.097776472568512 16.215850591659546 26.097776472568512 C 16.127938508987427 26.393655717372894 16.033217191696167 26.70427906513214 15.952114343643188 26.98163914680481 C 15.821340560913086 27.430800080299377 15.703090906143188 27.821483194828033 15.592805624008179 28.175840258598328 Z M 9.736316680908203 25.908311188220978 C 9.55471682548523 25.306723296642303 9.349649429321289 24.67208582162857 9.121114492416382 23.99998265504837 C 9.121114492416382 23.99998265504837 16.88674259185791 23.99998265504837 16.88674259185791 23.99998265504837 C 16.764662742614746 24.359610557556152 16.64167094230652 24.718739867210388 16.535215854644775 25.058780193328857 C 16.535215854644775 25.058780193328857 9.736316680908203 25.908311188220978 9.736316680908203 25.908311188220978 Z M 13.000007152557373 31.000155091285706 C 11.987315893173218 31.000155091285706 11.52051854133606 30.883911728858948 11.00289511680603 29.750040352344513 C 11.00289511680603 29.750040352344513 15.241218090057373 29.21968001127243 15.241218090057373 29.21968001127243 C 14.62796139717102 30.873156368732452 14.180740594863892 31.000155091285706 13.000007152557373 31.000155091285706 Z M 17.671932458877563 21.99998426437378 C 17.671932458877563 21.99998426437378 8.338903665542603 21.99998426437378 8.338903665542603 21.99998426437378 C 7.8408567905426025 20.921029329299927 7.243224859237671 19.839937567710876 6.653314113616943 18.783276855945587 C 5.348616123199463 16.448437750339508 4.000022888183594 14.0333251953125 4.000022888183594 12.00006353855133 C 4.000022888183594 7.037141501903534 8.037108659744263 3.000106394290924 13.000007152557373 3.000106394290924 C 17.962905645370483 3.000106394290924 22.000052213668823 7.037141501903534 22.000052213668823 12.00006353855133 C 22.000052213668823 14.017583906650543 20.65042543411255 16.446372151374817 19.344693899154663 18.795029401779175 C 18.75982928276062 19.848556101322174 18.16700029373169 20.925872802734375 17.671932458877563 21.99998426437378 Z M 13.000007152557373 6.000210821628571 C 9.69144868850708 6.000210821628571 7.000037908554077 8.691472589969635 7.000037908554077 12.00006353855133 C 7.000037908554077 12.276426434516907 7.223648309707642 12.499938488006592 7.500030279159546 12.499938488006592 C 7.77641224861145 12.499938488006592 8.000022649765015 12.276426434516907 8.000022649765015 12.00006353855133 C 8.000022649765015 9.243272423744202 10.243239879608154 7.000103175640106 13.000007152557373 7.000103175640106 C 13.276389122009277 7.000103175640106 13.499999523162842 6.776591122150421 13.499999523162842 6.500085771083832 C 13.499999523162842 6.223509192466736 13.276389122009277 6.000210821628571 13.000007152557373 6.000210821628571 Z"/></g></svg>