<svg version="1.1" xmlns="http://www.w3.org/2000/svg" xmlns:xlink="http://www.w3.org/1999/xlink" width="35" height="35"><defs/><g><path fill="rgb(102,109,137)" stroke="none" paint-order="stroke fill markers" fill-rule="evenodd" d=" M 30.395538568496704 3.58014714717865 C 28.750014066696167 1.937639832496643 26.585042238235474 1.0000003576278687 24.44919204711914 1.0000003576278687 C 22.649426221847534 1.0000003576278687 20.990222454071045 1.6680435538291931 19.780306577682495 2.8769887685775757 C 19.780306577682495 2.8769887685775757 14.913102149963379 7.781219303607941 14.913102149963379 7.781219303607941 C 14.898389339447021 7.794894993305206 14.880940675735474 7.804795622825623 14.866227865219116 7.819326043128967 C 14.858445882797241 7.827303528785706 14.853521347045898 7.837773978710175 14.845739364624023 7.845822691917419 C 14.845739364624023 7.845822691917419 14.847745656967163 7.847674608230591 14.847745656967163 7.847674608230591 C 14.847745656967163 7.847674608230591 4.517589569091797 18.25594288110733 4.517589569091797 18.25594288110733 C 4.042037487030029 18.72846645116806 3.696347236633301 19.318515479564667 3.5048983097076416 19.960987985134125 C 3.5048983097076416 19.960987985134125 1.156320333480835 28.468905210494995 1.156320333480835 28.468905210494995 C 1.153341293334961 28.49219661951065 1.000011920928955 29.16116577386856 1.000011920928955 29.49992400407791 C 1.000011920928955 31.432612359523773 2.5692973136901855 33.00011706352234 4.50494384765625 33.00011706352234 C 4.889604806900024 33.00011706352234 5.6348512172698975 32.81656366586685 5.66208815574646 32.812503695487976 C 5.66208815574646 32.812503695487976 14.139646053314209 30.583936095237732 14.139646053314209 30.583936095237732 C 14.78324031829834 30.39254766702652 15.369138479232788 30.044957220554352 15.844690561294556 29.568444907665253 C 15.844690561294556 29.568444907665253 31.107407569885254 14.185715734958649 31.107407569885254 14.185715734958649 C 33.88381218910217 11.40634548664093 33.571316957473755 6.749986827373505 30.395538568496704 3.58014714717865 Z M 17.014602184295654 24.79584288597107 C 16.932648181915283 23.892677545547485 16.677727460861206 23.007817685604095 16.295923948287964 22.168116092681885 C 16.295923948287964 22.168116092681885 25.750059843063354 12.714938044548035 25.750059843063354 12.714938044548035 C 26.328115224838257 14.541069984436035 26.032217502593994 16.45132166147232 24.76460552215576 17.718887150287628 C 24.756823539733887 17.726650953292847 24.747156858444214 17.731494426727295 24.739314079284668 17.73932945728302 C 24.739314079284668 17.73932945728302 24.752020597457886 17.752150416374207 24.752020597457886 17.752150416374207 C 24.752020597457886 17.752150416374207 17.02439045906067 25.54109674692154 17.02439045906067 25.54109674692154 C 17.025424003601074 25.293153643608093 17.037157773971558 25.048843145370483 17.014602184295654 24.79584288597107 Z M 15.793925285339355 21.255904853343964 C 15.420937299728394 20.642706871032715 14.99712324142456 20.05201679468155 14.471717834472656 19.527568340301514 C 13.860467433929443 18.916079819202423 13.1592378616333 18.438499093055725 12.42773151397705 18.035351157188416 C 12.42773151397705 18.035351157188416 21.960052013397217 8.503965258598328 21.960052013397217 8.503965258598328 C 22.707000732421875 8.836028099060059 23.424827814102173 9.308765351772308 24.057600259780884 9.941479682922363 C 24.597718477249146 10.480672240257263 25.016607999801636 11.083969593048096 25.337918758392334 11.711911678314209 C 25.337918758392334 11.711911678314209 15.793925285339355 21.255904853343964 15.793925285339355 21.255904853343964 Z M 11.48635482788086 17.562685132026672 C 10.560542106628418 17.189595222473145 9.589800596237183 16.976838529109955 8.618207931518555 16.96394634246826 C 8.618207931518555 16.96394634246826 16.3213369846344 9.20235139131546 16.3213369846344 9.20235139131546 C 17.500003337860107 8.05188399553299 19.217815160751343 7.720675885677338 20.909241199493408 8.140633523464203 C 20.909241199493408 8.140633523464203 11.48635482788086 17.562685132026672 11.48635482788086 17.562685132026672 Z M 5.168053865432739 30.873048722743988 C 5.058619737625122 30.898548185825348 4.719738721847534 30.984519839286804 4.489319086074829 31.000118672847748 C 3.6670432090759277 30.99128645658493 3.000042200088501 30.32231730222702 3.000042200088501 29.49992400407791 C 3.0117151737213135 29.33296662569046 3.07913875579834 29.043996453285217 3.1016335487365723 28.93736881017685 C 3.1016335487365723 28.93736881017685 4.154329061508179 25.123062252998352 4.154329061508179 25.123062252998352 C 5.296942949295044 25.09193581342697 6.5273473262786865 25.53710800409317 7.4941370487213135 26.506087601184845 C 8.476612329483032 27.487460792064667 8.938545942306519 28.741208136081696 8.887719869613647 29.896519005298615 C 8.887719869613647 29.896519005298615 5.168053865432739 30.873048722743988 5.168053865432739 30.873048722743988 Z M 9.874025344848633 29.63682335615158 C 9.849645853042603 28.296035945415497 9.303691148757935 26.899548590183258 8.202115058898926 25.799937665462494 C 7.160241365432739 24.75588423013687 5.796935319900513 24.15443879365921 4.436547517776489 24.100661993026733 C 4.436547517776489 24.100661993026733 5.432641267776489 20.4934139251709 5.432641267776489 20.4934139251709 C 5.5049285888671875 20.25280725955963 5.647496938705444 20.01668792963028 5.823260307312012 19.80870348215103 C 7.829127073287964 18.373325884342194 10.914135932922363 18.797058582305908 13.05764651298523 20.941506445407867 C 15.324209690093994 23.20796710252762 15.674824476242065 26.52752709388733 13.928742170333862 28.509861052036285 C 13.812559604644775 28.570262014865875 13.695343494415283 28.6288822889328 13.56931185722351 28.667202711105347 C 13.56931185722351 28.667202711105347 9.874025344848633 29.63682335615158 9.874025344848633 29.63682335615158 Z M 29.692424297332764 12.772561132907867 C 29.692424297332764 12.772561132907867 28.00780749320984 14.469771206378937 28.00780749320984 14.469771206378937 C 28.00780749320984 14.244336009025574 28.035226821899414 14.026522159576416 28.01461672782898 13.796029806137085 C 27.838914155960083 11.861418306827545 26.935535430908203 9.990270555019379 25.47173237800598 8.52732789516449 C 23.84286618232727 6.897641539573669 21.681602954864502 5.961853981018066 19.54301691055298 5.956155776977539 C 19.54301691055298 5.956155776977539 21.200214385986328 4.286083400249481 21.200214385986328 4.286083400249481 C 22.0273540019989 3.459060311317444 23.18364715576172 2.9999987483024597 24.44919204711914 2.9999987483024597 C 26.05963683128357 2.9999987483024597 27.711909770965576 3.727588176727295 28.98243999481201 4.9951536655426025 C 30.175819158554077 6.18643444776535 30.887748956680298 7.665973126888275 30.988306760787964 9.163033783435822 C 31.08205533027649 10.560803234577179 30.622128009796143 11.841830730438232 29.692424297332764 12.772561132907867 Z"/></g></svg>