<svg version="1.1" xmlns="http://www.w3.org/2000/svg" xmlns:xlink="http://www.w3.org/1999/xlink" width="35" height="31"><defs/><g><path fill="rgb(102,109,137)" stroke="none" paint-order="stroke fill markers" fill-rule="evenodd" d=" M 17.000007152557373 5.999966979026794 C 11.037123918533325 5.999966979026794 5.999992609024048 9.206203937530518 5.999992609024048 13.00013941526413 C 5.999992609024048 13.2764310836792 6.223603010177612 13.50001436471939 6.499984979629517 13.50001436471939 C 6.77630615234375 13.50001436471939 7.000038146972656 13.2764310836792 7.000038146972656 13.00013941526413 C 7.000038146972656 9.803803086280823 11.67281460762024 7.00007301568985 17.000007152557373 7.00007301568985 C 17.276328325271606 7.00007301568985 17.499999523162842 6.776560962200165 17.499999523162842 6.499984383583069 C 17.499999523162842 6.223692715167999 17.276328325271606 5.999966979026794 17.000007152557373 5.999966979026794 Z M 17.000007152557373 1.0002202987670898 C 8.163018941879272 1.0002202987670898 1.0000081062316895 6.3731993436813354 1.0000081062316895 13.00013941526413 C 1.0000081062316895 17.12699246406555 3.7793309688568115 20.7657231092453 8.007804870605469 22.925769805908203 C 8.007804870605469 22.953121185302734 8.000022888183594 22.97078561782837 8.000022888183594 23.00006014108658 C 8.000022888183594 24.792928814888 6.661157131195068 26.722910523414612 6.072219133377075 27.736478567123413 C 6.0732526779174805 27.736478567123413 6.074225425720215 27.736478567123413 6.074225425720215 27.736478567123413 C 6.027351140975952 27.84581285715103 5.999992609024048 27.966757237911224 5.999992609024048 28.093755960464478 C 5.999992609024048 28.594699323177338 6.405202865600586 29.000126540660858 6.90622878074646 29.000126540660858 C 7.000038146972656 29.000126540660858 7.165040493011475 28.9746270775795 7.161149501800537 28.98751926422119 C 10.286162614822388 28.475678086280823 13.230427026748657 25.60463798046112 13.91402554512024 24.771703004837036 C 14.913037538528442 24.918075621128082 15.943359851837158 25.00005853176117 17.000007152557373 25.00005853176117 C 25.835901021957397 25.00005853176117 33.00006699562073 19.627079486846924 33.00006699562073 13.00013941526413 C 33.00006699562073 6.3731993436813354 25.835901021957397 1.0002202987670898 17.000007152557373 1.0002202987670898 Z M 17.000007152557373 23.00006014108658 C 16.083009958267212 23.00006014108658 15.142545223236084 22.93061327934265 14.204147577285767 22.79314410686493 C 14.107419967651367 22.778400003910065 14.009719610214233 22.771490931510925 13.91402554512024 22.771490931510925 C 13.320345401763916 22.771490931510925 12.750923156738281 23.03617250919342 12.368146896362305 23.50285542011261 C 11.940441846847534 24.02431231737137 10.722622394561768 25.185748755931854 9.283198833465576 26.0420463681221 C 9.672845125198364 25.147713243961334 9.978531122207642 24.143760919570923 9.999019622802734 23.110462844371796 C 10.00479531288147 23.045859456062317 10.007835149765015 22.981540977954865 10.007835149765015 22.925769805908203 C 10.007835149765015 22.174888968467712 9.586939334869385 21.486189782619476 8.917932033538818 21.14465367794037 C 5.211945295333862 19.251923978328705 3.0000383853912354 16.207017421722412 3.0000383853912354 13.00013941526413 C 3.0000383853912354 7.486485958099365 9.280219793319702 3.000005006790161 17.000007152557373 3.000005006790161 C 24.719733715057373 3.000005006790161 31.00003671646118 7.486485958099365 31.00003671646118 13.00013941526413 C 31.00003671646118 18.513792872428894 24.719733715057373 23.00006014108658 17.000007152557373 23.00006014108658 Z"/></g></svg>