<svg version="1.1" xmlns="http://www.w3.org/2000/svg" xmlns:xlink="http://www.w3.org/1999/xlink" width="36" height="32"><defs/><g><path fill="rgb(102,109,137)" stroke="none" paint-order="stroke fill markers" fill-rule="evenodd" d=" M 31.192089796066284 4.792332410812378 C 27.562342166900635 1.2006831765174866 21.760509490966797 1.1256093382835388 17.999805688858032 4.50471556186676 C 14.240013837814331 1.1256093382835388 8.439214706420898 1.2006831765174866 4.808311939239502 4.792332410812378 C 1.0671238899230957 8.492318749427795 1.0671238899230957 14.490533232688904 4.808311939239502 18.191516757011414 C 5.8777265548706055 19.248818516731262 15.861158847808838 29.121740520000458 15.861158847808838 29.121740520000458 C 17.043716192245483 30.291154444217682 18.956807136535645 30.291154444217682 20.13942527770996 29.121740520000458 C 20.13942527770996 29.121740520000458 31.071043491363525 18.311392724514008 31.192089796066284 18.191516757011414 C 34.93333864212036 14.490533232688904 34.93333864212036 8.492318749427795 31.192089796066284 4.792332410812378 Z M 29.76543354988098 16.78092634677887 C 29.76543354988098 16.78092634677887 18.712647438049316 27.711150109767914 18.712647438049316 27.711150109767914 C 18.320143699645996 28.100408673286438 17.67946767807007 28.100408673286438 17.28781509399414 27.711150109767914 C 17.28781509399414 27.711150109767914 6.2350897789001465 16.78092634677887 6.2350897789001465 16.78092634677887 C 3.2849280834198 13.864300608634949 3.2849280834198 9.11855137348175 6.2350897789001465 6.20192563533783 C 9.078917980194092 3.389577031135559 13.651136636734009 3.291140556335449 16.64434242248535 5.980479180812836 C 16.64434242248535 5.980479180812836 17.999805688858032 7.198897659778595 17.999805688858032 7.198897659778595 C 17.999805688858032 7.198897659778595 19.356241703033447 5.980479180812836 19.356241703033447 5.980479180812836 C 22.34944748878479 3.291140556335449 26.92263889312744 3.389577031135559 29.76543354988098 6.20192563533783 C 32.71559524536133 9.11855137348175 32.71559524536133 13.864300608634949 29.76543354988098 16.78092634677887 Z M 11.251732587814331 7.0262420773506165 C 11.249847888946533 7.0262420773506165 11.249847888946533 7.027310490608215 11.247841596603394 7.027310490608215 C 8.903154611587524 7.029162406921387 7.001736640930176 8.928445041179657 7.001736640930176 11.271475315093994 C 7.001736640930176 11.271475315093994 7.001736640930176 11.271475315093994 7.001736640930176 11.271475315093994 C 7.001736640930176 11.547339618206024 7.22534704208374 11.770922899246216 7.5017290115356445 11.770922899246216 C 7.778110980987549 11.770922899246216 8.001721382141113 11.547339618206024 8.001721382141113 11.271475315093994 C 8.001721382141113 11.271475315093994 8.001721382141113 11.270406901836395 8.001721382141113 11.270406901836395 C 8.001721382141113 9.478535413742065 9.456830501556396 8.025066018104553 11.250759840011597 8.025066018104553 C 11.250759840011597 8.025066018104553 11.251732587814331 8.025066018104553 11.251732587814331 8.025066018104553 C 11.528114557266235 8.025066018104553 11.7517249584198 7.801767647266388 11.7517249584198 7.5256184339523315 C 11.7517249584198 7.249540448188782 11.528114557266235 7.0262420773506165 11.251732587814331 7.0262420773506165 Z"/></g></svg>