<svg version="1.1" xmlns="http://www.w3.org/2000/svg" xmlns:xlink="http://www.w3.org/1999/xlink" width="26" height="36"><defs/><g><path fill="rgb(102,109,137)" stroke="none" paint-order="stroke fill markers" fill-rule="evenodd" d=" M 21.00001049041748 1.9995808601379395 C 21.00001049041748 1.9995808601379395 5.000011444091797 2.000364363193512 5.000011444091797 2.000364363193512 C 3.3428139686584473 2.000364363193512 1.9999964237213135 3.3432886004447937 1.9999964237213135 5.000540018081665 C 1.9999964237213135 5.000540018081665 1.9999964237213135 31.000590324401855 1.9999964237213135 31.000590324401855 C 1.9999964237213135 32.657699286937714 3.3428139686584473 34.00055229663849 5.000011444091797 34.00055229663849 C 5.000011444091797 34.00055229663849 21.00001049041748 33.99948388338089 21.00001049041748 33.99948388338089 C 22.65720796585083 33.99948388338089 24.000025510787964 32.656844556331635 24.000025510787964 30.999593138694763 C 24.000025510787964 30.999593138694763 24.000025510787964 4.999685287475586 24.000025510787964 4.999685287475586 C 24.000025510787964 3.3424338698387146 22.65720796585083 1.9995808601379395 21.00001049041748 1.9995808601379395 Z M 22.00005602836609 30.999593138694763 C 22.00005602836609 31.551321744918823 21.551862478256226 31.9994854927063 21.00001049041748 31.9994854927063 C 21.00001049041748 31.9994854927063 5.000011444091797 32.0005539059639 5.000011444091797 32.0005539059639 C 4.448220252990723 32.0005539059639 4.000026702880859 31.552176475524902 4.000026702880859 31.000590324401855 C 4.000026702880859 31.000590324401855 4.000026702880859 28.996603190898895 4.000026702880859 28.996603190898895 C 4.000026702880859 28.996603190898895 22.00005602836609 28.995534777641296 22.00005602836609 28.995534777641296 C 22.00005602836609 28.995534777641296 22.00005602836609 30.999593138694763 22.00005602836609 30.999593138694763 Z M 22.00005602836609 27.99564242362976 C 22.00005602836609 27.99564242362976 4.000026702880859 27.99671083688736 4.000026702880859 27.99671083688736 C 4.000026702880859 27.99671083688736 4.000026702880859 8.000430762767792 4.000026702880859 8.000430762767792 C 4.000026702880859 8.000430762767792 22.00005602836609 7.999647259712219 22.00005602836609 7.999647259712219 C 22.00005602836609 7.999647259712219 22.00005602836609 27.99564242362976 22.00005602836609 27.99564242362976 Z M 22.00005602836609 6.999541223049164 C 22.00005602836609 6.999541223049164 4.000026702880859 7.000538408756256 4.000026702880859 7.000538408756256 C 4.000026702880859 7.000538408756256 4.000026702880859 5.000540018081665 4.000026702880859 5.000540018081665 C 4.000026702880859 4.448740184307098 4.448220252990723 4.000647664070129 5.000011444091797 4.000647664070129 C 5.000011444091797 4.000647664070129 21.00001049041748 3.9995792508125305 21.00001049041748 3.9995792508125305 C 21.551862478256226 3.9995792508125305 22.00005602836609 4.447885453701019 22.00005602836609 4.999685287475586 C 22.00005602836609 4.999685287475586 22.00005602836609 6.999541223049164 22.00005602836609 6.999541223049164 Z M 15.000041246414185 5.499560236930847 C 15.000041246414185 5.7760655879974365 14.77643084526062 5.999577641487122 14.500048875808716 5.999577641487122 C 14.500048875808716 5.999577641487122 11.500033855438232 5.999577641487122 11.500033855438232 5.999577641487122 C 11.223651885986328 5.999577641487122 11.000041484832764 5.7760655879974365 11.000041484832764 5.499560236930847 C 11.000041484832764 5.499560236930847 11.000041484832764 5.499560236930847 11.000041484832764 5.499560236930847 C 11.000041484832764 5.223197340965271 11.223651885986328 4.999685287475586 11.500033855438232 4.999685287475586 C 11.500033855438232 4.999685287475586 14.500048875808716 4.999685287475586 14.500048875808716 4.999685287475586 C 14.77643084526062 4.999685287475586 15.000041246414185 5.223197340965271 15.000041246414185 5.499560236930847 C 15.000041246414185 5.499560236930847 15.000041246414185 5.499560236930847 15.000041246414185 5.499560236930847 Z M 13.999995708465576 30.495729446411133 C 13.999995708465576 30.772021114826202 13.776446104049683 30.995746850967407 13.500003337860107 30.995746850967407 C 13.500003337860107 30.995746850967407 12.50001859664917 30.995746850967407 12.50001859664917 30.995746850967407 C 12.223636627197266 30.995746850967407 12.000026226043701 30.772021114826202 12.000026226043701 30.495729446411133 C 12.000026226043701 30.495729446411133 12.000026226043701 30.495729446411133 12.000026226043701 30.495729446411133 C 12.000026226043701 30.219437777996063 12.223636627197266 29.995640814304352 12.50001859664917 29.995640814304352 C 12.50001859664917 29.995640814304352 13.500003337860107 29.995640814304352 13.500003337860107 29.995640814304352 C 13.776446104049683 29.995640814304352 13.999995708465576 30.219437777996063 13.999995708465576 30.495729446411133 C 13.999995708465576 30.495729446411133 13.999995708465576 30.495729446411133 13.999995708465576 30.495729446411133 Z"/></g></svg>