<svg version="1.1" xmlns="http://www.w3.org/2000/svg" xmlns:xlink="http://www.w3.org/1999/xlink" width="36" height="34"><defs/><g><path fill="rgb(102,109,137)" stroke="none" paint-order="stroke fill markers" fill-rule="evenodd" d=" M 33.880643129348755 12.556820750236511 C 33.60426115989685 11.757932543754578 32.893364906311035 11.17294067144394 32.03789401054382 11.045941948890686 C 32.03789401054382 11.045941948890686 23.71165919303894 9.807579755783081 23.71165919303894 9.807579755783081 C 23.71165919303894 9.807579755783081 20.091578245162964 2.2940703630447388 20.091578245162964 2.2940703630447388 C 19.71165943145752 1.5050827860832214 18.89625358581543 1.000008225440979 17.999805688858032 1.000008225440979 C 17.1042697429657 1.000008225440979 16.28886389732361 1.5050827860832214 15.90797233581543 2.2940703630447388 C 15.90797233581543 2.2940703630447388 12.288864135742188 9.807579755783081 12.288864135742188 9.807579755783081 C 12.288864135742188 9.807579755783081 3.9616565704345703 11.045941948890686 3.9616565704345703 11.045941948890686 C 3.1061856746673584 11.17294067144394 2.395289421081543 11.757932543754578 2.119880199432373 12.556820750236511 C 1.8444709777832031 13.357418417930603 2.0524566173553467 14.239286720752716 2.65695858001709 14.841800570487976 C 2.65695858001709 14.841800570487976 8.758579969406128 20.93460524082184 8.758579969406128 20.93460524082184 C 8.758579969406128 20.93460524082184 7.343596696853638 29.385967791080475 7.343596696853638 29.385967791080475 C 7.199994802474976 30.236353516578674 7.569091796875 31.090941667556763 8.29178261756897 31.589107155799866 C 8.689271688461304 31.861410081386566 9.156069040298462 32.000018894672394 9.622744798660278 32.000018894672394 C 10.00655460357666 32.000018894672394 10.391397953033447 31.906425893306732 10.740979194641113 31.71966725587845 C 10.740979194641113 31.71966725587845 17.999805688858032 27.81155401468277 17.999805688858032 27.81155401468277 C 17.999805688858032 27.81155401468277 25.259544134140015 31.71966725587845 25.259544134140015 31.71966725587845 C 25.60918617248535 31.906425893306732 25.993907928466797 32.000018894672394 26.376744985580444 32.000018894672394 C 26.844454288482666 32.000018894672394 27.31027889251709 31.861410081386566 27.70880150794983 31.589107155799866 C 28.431370735168457 31.090941667556763 28.799555778503418 30.236353516578674 28.65698742866516 29.385967791080475 C 28.65698742866516 29.385967791080475 27.240970611572266 20.93460524082184 27.240970611572266 20.93460524082184 C 27.240970611572266 20.93460524082184 33.34356474876404 14.841800570487976 33.34356474876404 14.841800570487976 C 33.94794511795044 14.239286720752716 34.15507960319519 13.357418417930603 33.880643129348755 12.556820750236511 Z M 25.587724924087524 19.363325476646423 C 25.075998783111572 19.874098241329193 24.843572854995728 20.59185826778412 24.961640119552612 21.29693979024887 C 24.961640119552612 21.29693979024887 26.376744985580444 29.74908584356308 26.376744985580444 29.74908584356308 C 26.376744985580444 29.74908584356308 19.117979288101196 25.84182733297348 19.117979288101196 25.84182733297348 C 18.769249200820923 25.654213964939117 18.38458824157715 25.560620963573456 17.999805688858032 25.560620963573456 C 17.61599588394165 25.560620963573456 17.231152534484863 25.654213964939117 16.88254404067993 25.84182733297348 C 16.88254404067993 25.84182733297348 9.622744798660278 29.74908584356308 9.622744798660278 29.74908584356308 C 9.622744798660278 29.74908584356308 11.038883209228516 21.29693979024887 11.038883209228516 21.29693979024887 C 11.1569504737854 20.59185826778412 10.924585342407227 19.874098241329193 10.412859201431274 19.363325476646423 C 10.412859201431274 19.363325476646423 4.311298608779907 13.27158921957016 4.311298608779907 13.27158921957016 C 4.311298608779907 13.27158921957016 12.63747262954712 12.031303882598877 12.63747262954712 12.031303882598877 C 13.3981614112854 11.91819453239441 14.053489446640015 11.44253695011139 14.38069748878479 10.76373839378357 C 14.38069748878479 10.76373839378357 17.999805688858032 3.251083731651306 17.999805688858032 3.251083731651306 C 17.999805688858032 3.251083731651306 21.61988663673401 10.76373839378357 21.61988663673401 10.76373839378357 C 21.947094678878784 11.44253695011139 22.601389169692993 11.91819453239441 23.362077951431274 12.031303882598877 C 23.362077951431274 12.031303882598877 31.68928551673889 13.27158921957016 31.68928551673889 13.27158921957016 C 31.68928551673889 13.27158921957016 25.587724924087524 19.363325476646423 25.587724924087524 19.363325476646423 Z"/></g></svg>